<svg width="89" height="89" viewBox="0 0 89 89" fill="none" xmlns="http://www.w3.org/2000/svg">
<circle cx="44.5" cy="44.5" r="44.5" transform="rotate(90 44.5 44.5)" fill="#DFDCC9" fill-opacity="0.3"/>
<path d="M58.1701 37.7829C57.0703 36.739 55.2955 36.739 54.1956 37.7829L43.9968 47.4533L33.798 37.7829C32.6981 36.739 30.9234 36.739 29.8235 37.7829C29.5627 38.0286 29.3556 38.3217 29.2142 38.6451C29.0728 38.9686 29 39.3158 29 39.6666C29 40.0173 29.0728 40.3645 29.2142 40.688C29.3556 41.0114 29.5627 41.3045 29.8235 41.5502L43.9968 55L58.1701 41.5622C58.4328 41.3163 58.6415 41.0225 58.7841 40.6979C58.9266 40.3734 59 40.0248 59 39.6726C59 39.3204 58.9266 38.9717 58.7841 38.6472C58.6415 38.3226 58.4328 38.0288 58.1701 37.7829Z" fill="#2C55FF"/>
</svg>
