<svg width="33" height="32" viewBox="0 0 33 32" fill="none" xmlns="http://www.w3.org/2000/svg">
<path d="M16.081 0.848999C16.411 1.97 16.581 3.091 16.703 4.211C16.819 5.332 16.872 6.45201 16.87 7.57201C16.869 8.69201 16.813 9.813 16.693 10.933C16.568 12.053 16.393 13.173 16.057 14.293C15.725 13.172 15.554 12.051 15.433 10.931C15.318 9.811 15.264 8.69001 15.268 7.57001C15.271 6.45001 15.327 5.329 15.447 4.209C15.573 3.089 15.747 1.969 16.081 0.848999Z" fill="#2C55FF"/>
<path d="M16.028 31.919C15.698 30.798 15.528 29.677 15.406 28.557C15.29 27.436 15.238 26.316 15.239 25.196C15.24 24.076 15.296 22.955 15.416 21.835C15.541 20.715 15.716 19.595 16.052 18.475C16.384 19.596 16.555 20.717 16.676 21.837C16.791 22.958 16.845 24.078 16.841 25.198C16.838 26.318 16.782 27.439 16.662 28.559C16.536 29.679 16.362 30.799 16.028 31.919Z" fill="#2C55FF"/>
<path d="M0.0300293 16.357C1.18603 16.027 2.34203 15.857 3.49803 15.735C4.65403 15.619 5.81003 15.567 6.96503 15.568C8.12103 15.569 9.27604 15.626 10.432 15.745C11.588 15.87 12.743 16.045 13.898 16.381C12.742 16.713 11.586 16.884 10.43 17.005C9.27402 17.121 8.11803 17.173 6.96303 17.17C5.80703 17.167 4.65203 17.11 3.49603 16.991C2.34003 16.865 1.18503 16.691 0.0300293 16.357Z" fill="#2C55FF"/>
<path d="M32.08 16.411C30.924 16.741 29.768 16.911 28.612 17.033C27.456 17.149 26.3 17.201 25.145 17.2C23.989 17.199 22.834 17.143 21.678 17.023C20.522 16.898 19.367 16.723 18.212 16.387C19.368 16.055 20.524 15.884 21.68 15.763C22.836 15.648 23.992 15.595 25.147 15.598C26.303 15.601 27.458 15.657 28.614 15.777C29.769 15.903 30.924 16.077 32.08 16.411Z" fill="#2C55FF"/>
</svg>
