<svg width="89" height="89" viewBox="0 0 89 89" fill="none" xmlns="http://www.w3.org/2000/svg">
<circle cx="44.5" cy="44.5" r="44.5" transform="rotate(-90 44.5 44.5)" fill="#DFDCC9" fill-opacity="0.3"/>
<path d="M30.8299 51.2171C31.9297 52.261 33.7045 52.261 34.8044 51.2171L45.0032 41.5467L55.202 51.2171C56.3019 52.261 58.0766 52.261 59.1765 51.2171C59.4373 50.9714 59.6444 50.6783 59.7858 50.3549C59.9272 50.0314 60 49.6842 60 49.3334C60 48.9827 59.9272 48.6355 59.7858 48.312C59.6444 47.9886 59.4373 47.6955 59.1765 47.4498L45.0032 34L30.8299 47.4378C30.5672 47.6837 30.3585 47.9775 30.2159 48.3021C30.0734 48.6266 30 48.9752 30 49.3274C30 49.6796 30.0734 50.0283 30.2159 50.3528C30.3585 50.6774 30.5672 50.9712 30.8299 51.2171Z" fill="#2C55FF"/>
</svg>
